<svg width="129" height="44" viewBox="0 0 129 44" fill="none" xmlns="http://www.w3.org/2000/svg">
<g clip-path="url(#clip0_19_50)">
<path d="M56.0462 42.5766C55.8708 42.4162 55.6416 42.3273 55.4039 42.3273C55.1661 42.3273 54.937 42.4162 54.7615 42.5766C54.6821 42.6503 54.6186 42.7394 54.5748 42.8384C54.531 42.9375 54.5079 43.0444 54.5068 43.1527C54.5076 43.2606 54.5306 43.3672 54.5745 43.4658C54.6183 43.5644 54.682 43.653 54.7615 43.7259C54.937 43.8863 55.1661 43.9752 55.4039 43.9752C55.6416 43.9752 55.8708 43.8863 56.0462 43.7259C56.1265 43.6534 56.1909 43.565 56.2352 43.4663C56.2796 43.3677 56.3029 43.2608 56.3037 43.1527C56.3027 43.0441 56.2794 42.9369 56.2351 42.8378C56.1908 42.7386 56.1265 42.6497 56.0462 42.5766Z" fill="black"/>
<path d="M63.659 41.7908C63.0357 42.4004 62.2075 42.7563 61.3359 42.7891C60.9181 42.7916 60.504 42.7091 60.1191 42.5466C59.7342 42.3841 59.3864 42.145 59.0969 41.8439C58.489 41.224 58.1486 40.3907 58.1486 39.5228C58.1486 38.6549 58.489 37.8216 59.0969 37.2017C59.3861 36.9001 59.7338 36.6605 60.1188 36.4975C60.5037 36.3345 60.9179 36.2515 61.3359 36.2537C62.2075 36.2865 63.0357 36.6424 63.659 37.2521L63.7513 37.3332L64.7029 36.4942L64.5882 36.3879C63.7172 35.539 62.5527 35.0573 61.3359 35.0428C60.7365 35.0295 60.1407 35.1391 59.5852 35.3646C59.0297 35.5902 58.5263 35.927 58.1061 36.3544C57.6875 36.7672 57.3551 37.259 57.1282 37.8012C56.9014 38.3435 56.7845 38.9253 56.7845 39.513C56.7845 40.1007 56.9014 40.6826 57.1282 41.2248C57.3551 41.767 57.6875 42.2588 58.1061 42.6717C58.5268 43.0988 59.0301 43.4359 59.5854 43.6624C60.1407 43.8888 60.7363 43.9999 61.3359 43.9888C62.5515 43.9738 63.7152 43.4945 64.5882 42.6493L64.7029 42.543L63.7513 41.7041L63.659 41.7908Z" fill="black"/>
<path d="M73.1273 36.3544C72.2657 35.5048 71.1039 35.0284 69.8933 35.0284C68.6828 35.0284 67.5209 35.5048 66.6593 36.3544C66.24 36.768 65.9071 37.2607 65.6798 37.8039C65.4526 38.347 65.3356 38.9299 65.3356 39.5186C65.3356 40.1073 65.4526 40.6902 65.6798 41.2334C65.9071 41.7766 66.24 42.2692 66.6593 42.6829C67.5209 43.5325 68.6828 44.0089 69.8933 44.0089C71.1039 44.0089 72.2657 43.5325 73.1273 42.6829C73.5466 42.2692 73.8796 41.7766 74.1068 41.2334C74.334 40.6902 74.451 40.1073 74.451 39.5186C74.451 38.9299 74.334 38.347 74.1068 37.8039C73.8796 37.2607 73.5466 36.768 73.1273 36.3544ZM69.8891 42.7863C69.471 42.787 69.0571 42.7031 68.6723 42.5397C68.2875 42.3763 67.9398 42.1368 67.6501 41.8355C67.0402 41.2144 66.6985 40.379 66.6985 39.5088C66.6985 38.6387 67.0402 37.8033 67.6501 37.1822C67.9426 36.8806 68.2927 36.6408 68.6798 36.4771C69.0668 36.3133 69.4828 36.2289 69.9031 36.2289C70.3234 36.2289 70.7394 36.3133 71.1265 36.4771C71.5135 36.6408 71.8637 36.8806 72.1562 37.1822C72.7654 37.8036 73.1066 38.6389 73.1066 39.5088C73.1066 40.3788 72.7654 41.214 72.1562 41.8355C71.8629 42.1398 71.5106 42.381 71.1208 42.5445C70.731 42.708 70.3119 42.7903 69.8891 42.7863Z" fill="black"/>
<path d="M7.75551 11.9326C6.16947 11.4547 4.71865 10.6096 3.5209 9.46614C3.00488 8.96661 2.59683 8.36668 2.32196 7.7034C2.04709 7.04012 1.91123 6.32758 1.92278 5.60978C1.92109 4.88392 2.06709 4.1653 2.35192 3.49756C2.63675 2.82983 3.05446 2.22691 3.57968 1.72545C4.11519 1.17775 4.75785 0.746123 5.46761 0.457449C6.17737 0.168775 6.93903 0.0292453 7.70513 0.047554C8.48024 0.0365385 9.24947 0.183345 9.96595 0.479027C10.6824 0.774708 11.3311 1.21307 11.8726 1.7674C12.5328 2.46909 13.0129 3.32022 13.272 4.24788L10.5291 5.31335C10.1905 4.3961 9.8826 3.80045 9.61112 3.52919C9.37336 3.26396 9.08271 3.05135 8.75784 2.90502C8.43296 2.75869 8.08105 2.68188 7.7247 2.67951C7.36835 2.67713 7.01544 2.74926 6.68865 2.89126C6.36185 3.03325 6.0684 3.24198 5.82712 3.50402C5.55339 3.77928 5.33893 4.10761 5.19693 4.46879C5.05494 4.82997 4.98842 5.21636 5.00148 5.60418C4.99188 5.99866 5.0612 6.39108 5.20538 6.75844C5.34957 7.1258 5.5657 7.4607 5.84112 7.7435C6.55559 8.39336 7.37145 8.92232 8.25649 9.30953C10.0996 9.88088 11.7791 10.8848 13.1544 12.2375C13.8683 12.9228 14.4366 13.7447 14.8257 14.6543C15.2147 15.5638 15.4164 16.5423 15.4188 17.5315C15.4211 18.5206 15.2241 19.5001 14.8394 20.4115C14.4547 21.3228 13.8902 22.1475 13.1796 22.8362C12.4666 23.5636 11.612 24.1374 10.6685 24.5221C9.72508 24.9069 8.71274 25.0945 7.69393 25.0734C6.66554 25.0906 5.64467 24.8953 4.69538 24.4998C3.74609 24.1042 2.88886 23.5169 2.17748 22.7746C0.967314 21.5454 0.201204 19.9485 0 18.2359L2.96114 17.1677C3.14773 18.9462 3.65245 20.2429 4.4753 21.0576C4.89171 21.4934 5.39323 21.8391 5.94879 22.0734C6.50436 22.3076 7.10214 22.4254 7.70513 22.4195C8.32019 22.4231 8.92948 22.3008 9.49552 22.0604C10.0616 21.8199 10.5724 21.4663 10.9965 21.0212C11.4554 20.5684 11.8164 20.0262 12.0571 19.4283C12.2978 18.8304 12.4131 18.1894 12.3959 17.5452C12.414 16.9063 12.301 16.2705 12.0636 15.677C11.8263 15.0835 11.4698 14.5449 11.0161 14.0943C10.0797 13.1695 8.9723 12.4353 7.75551 11.9326Z" fill="black"/>
<path d="M21.3689 0.338379V24.7965H18.2902V0.338379H21.3689Z" fill="black"/>
<path d="M47.3951 0.338379V24.7965H44.3164V4.91064L36.2698 15.4674L28.2064 4.91064V24.7965H25.1277V0.338379H28.4107L36.2698 10.6267L44.1065 0.341175L47.3951 0.338379Z" fill="black"/>
<path d="M69.0187 24.7965V0.338379H72.0974V22.1286H80.8856V24.7965H69.0187Z" fill="black"/>
<path d="M102.336 3.70535C103.522 4.84539 104.463 6.21606 105.099 7.73295C105.735 9.24984 106.054 10.8808 106.036 12.5255C106.057 14.1747 105.74 15.8108 105.103 17.3326C104.467 18.8545 103.525 20.2298 102.336 21.3736C99.9274 23.7424 96.6834 25.07 93.304 25.07C89.9245 25.07 86.6806 23.7424 84.2722 21.3736C83.0829 20.2298 82.1409 18.8545 81.5045 17.3326C80.8681 15.8108 80.5508 14.1747 80.5722 12.5255C80.5538 10.8808 80.8726 9.24984 81.509 7.73295C82.1453 6.21606 83.0857 4.84539 84.2722 3.70535C86.6777 1.33119 89.9228 -0.000152588 93.304 -0.000152588C96.6852 -0.000152588 99.9302 1.33119 102.336 3.70535ZM93.2956 2.68463C92.031 2.67339 90.7776 2.92176 89.613 3.41434C88.4484 3.90692 87.3974 4.63322 86.5252 5.54824C85.5963 6.45676 84.8635 7.54581 84.372 8.74823C83.8805 9.95064 83.6408 11.2409 83.6677 12.5395C83.6408 13.838 83.8805 15.1283 84.372 16.3307C84.8635 17.5331 85.5963 18.6222 86.5252 19.5307C87.4073 20.4345 88.4615 21.1527 89.6257 21.6431C90.7899 22.1335 92.0405 22.3862 93.304 22.3862C94.5674 22.3862 95.818 22.1335 96.9822 21.6431C98.1464 21.1527 99.2006 20.4345 100.083 19.5307C101.012 18.6222 101.744 17.5331 102.236 16.3307C102.727 15.1283 102.967 13.838 102.94 12.5395C102.965 11.2433 102.725 9.95564 102.233 8.75577C101.742 7.5559 101.01 6.46912 100.083 5.56222C99.2087 4.64407 98.1553 3.91493 96.9879 3.41996C95.8204 2.92499 94.5637 2.67472 93.2956 2.68463Z" fill="#CE0033"/>
<path d="M111.972 0.338379L125.921 19.8859V0.338379H129V24.7965H125.599L112.006 5.744V24.7965H108.927V0.338379H111.972Z" fill="black"/>
<path d="M94.9944 7.66519H91.258V11.3985H94.9944V7.66519ZM94.9944 14.3264H91.258V18.0598H94.9944V14.3264Z" fill="#CE0033"/>
<path d="M63.8129 2.99785C62.3355 1.51158 60.396 0.571733 58.3132 0.332794H51.0251V24.7909H54.1038V18.0038H57.356C58.5521 18.0301 59.7407 17.8103 60.8481 17.3581C61.9555 16.9058 62.958 16.2309 63.7933 15.3751C64.6289 14.5691 65.2913 13.6015 65.7403 12.5312C66.1892 11.461 66.4153 10.3105 66.4046 9.15013C66.4161 8.00215 66.1921 6.86398 65.7463 5.80585C65.3006 4.74772 64.6426 3.79206 63.8129 2.99785ZM61.5179 13.4232C60.9847 13.9682 60.3471 14.4004 59.6431 14.694C58.9391 14.9875 58.1832 15.1364 57.4204 15.1318H54.1038V3.21598H57.4204C58.1823 3.21054 58.9376 3.35798 59.6414 3.64956C60.3452 3.94114 60.9833 4.37093 61.5179 4.91345C62.0888 5.45885 62.5394 6.11748 62.8406 6.84708C63.1418 7.57668 63.2871 8.36114 63.2671 9.15013C63.2893 9.94481 63.1452 10.7353 62.8439 11.4712C62.5427 12.207 62.0911 12.8718 61.5179 13.4232Z" fill="black"/>
</g>
<defs>
<clipPath id="clip0_19_50">
<rect width="129" height="44" fill="white"/>
</clipPath>
</defs>
</svg>
